<svg xmlns="http://www.w3.org/2000/svg" viewBox="0 0 89.36 27"><defs><style>.cls-1,.cls-4{fill:#2b2b2b;}.cls-1{fill-rule:evenodd;}.cls-2{fill:#4aebab;}.cls-3{fill:#828282;}</style></defs><g id="Layer_2" data-name="Layer 2"><g id="Layer_1-2" data-name="Layer 1"><path class="cls-1" d="M88.58,17.22a9.25,9.25,0,0,0-8.47-13H15.55a9.25,9.25,0,0,0,0,18.5H80.11A9.26,9.26,0,0,0,88.58,17.22Z"/><circle class="cls-2" cx="13.5" cy="13.5" r="13.5"/><polygon class="cls-2" points="37.77 16.5 35.53 15.37 33.28 16.48 33.67 14 31.92 12.21 34.39 11.8 35.56 9.59 36.7 11.81 39.18 12.24 37.41 14.02 37.77 16.5"/><polygon class="cls-2" points="48.8 16.5 46.56 15.37 44.31 16.48 44.69 14 42.94 12.21 45.41 11.8 46.58 9.59 47.73 11.81 50.2 12.24 48.44 14.02 48.8 16.5"/><polygon class="cls-2" points="59.82 16.5 57.58 15.37 55.33 16.48 55.72 14 53.97 12.21 56.44 11.8 57.6 9.59 58.75 11.81 61.22 12.24 59.46 14.02 59.82 16.5"/><polygon class="cls-3" points="81.87 16.5 79.63 15.37 77.38 16.48 77.76 14 76.01 12.21 78.49 11.8 79.65 9.59 80.8 11.81 83.27 12.24 81.51 14.02 81.87 16.5"/><polygon class="cls-3" points="70.84 16.5 68.61 15.37 66.36 16.48 66.74 14 64.99 12.21 67.46 11.8 68.63 9.59 69.78 11.81 72.25 12.24 70.48 14.02 70.84 16.5"/><polygon class="cls-2" points="68.61 9.63 67.46 11.8 64.99 12.21 66.74 14 66.36 16.48 68.61 15.37 68.61 15.38 68.61 9.63"/><path class="cls-4" d="M8.45,13h.77a1,1,0,0,0,.78-.27,1.1,1.1,0,0,0,.24-.76,1,1,0,0,0-.25-.75,1.06,1.06,0,0,0-.76-.26,1.08,1.08,0,0,0-.74.26.88.88,0,0,0-.29.68H7.13v0a1.53,1.53,0,0,1,.57-1.28A2.23,2.23,0,0,1,9.21,10a2.35,2.35,0,0,1,1.57.5,1.77,1.77,0,0,1,.58,1.41,1.56,1.56,0,0,1-.26.83,1.78,1.78,0,0,1-.75.62,1.59,1.59,0,0,1,.84.61,1.69,1.69,0,0,1,.27.94,1.79,1.79,0,0,1-.63,1.45,2.44,2.44,0,0,1-1.62.52,2.43,2.43,0,0,1-1.55-.49A1.58,1.58,0,0,1,7.05,15v0H8.14a1,1,0,0,0,.29.72,1.16,1.16,0,0,0,.8.28,1.15,1.15,0,0,0,.81-.28,1,1,0,0,0,.3-.8,1.14,1.14,0,0,0-.27-.83,1.16,1.16,0,0,0-.85-.27H8.45Z"/><path class="cls-4" d="M13.81,16.81H12.7V15.74h1.11Z"/><path class="cls-4" d="M15.34,13.82l.39-3.7h3.53v1h-2.6l-.2,1.68a1.61,1.61,0,0,1,.45-.24,1.78,1.78,0,0,1,.59-.1A1.83,1.83,0,0,1,19,13a2.42,2.42,0,0,1,.53,1.66,2.29,2.29,0,0,1-.56,1.61,2.07,2.07,0,0,1-1.62.62,2.34,2.34,0,0,1-1.49-.48A1.61,1.61,0,0,1,15.25,15v0l1,0a1,1,0,0,0,.28.76,1,1,0,0,0,.74.27,1,1,0,0,0,.8-.37,1.57,1.57,0,0,0,.27-1,1.65,1.65,0,0,0-.28-1,1,1,0,0,0-.8-.38,1.22,1.22,0,0,0-.68.15.89.89,0,0,0-.33.43Z"/></g></g></svg>